<svg width="114" height="16" viewBox="0 0 114 16" fill="none" xmlns="http://www.w3.org/2000/svg">
<path fill-rule="evenodd" clip-rule="evenodd" d="M9.3843 1.21561C11.5689 -0.157424 14.0229 -0.434936 15.8881 0.731582C18.8342 2.5709 19.1908 7.3128 16.6787 11.319C14.8329 14.2748 11.9464 16.0044 9.37623 15.9738C6.80602 15.998 3.91957 14.2748 2.0738 11.319C-0.422194 7.3128 -0.0656238 2.5709 2.88052 0.731582C4.74404 -0.433322 7.20293 -0.15581 9.3843 1.21561ZM2.27871 7.82749C2.52881 8.76275 2.91882 9.65484 3.43554 10.4735C3.76491 11.0028 4.14418 11.4993 4.56818 11.9563C4.03574 9.79589 4.4988 7.09015 6.02027 4.65386C6.56991 3.76934 7.2394 2.9652 8.00965 2.26435C7.80817 2.15906 7.60137 2.06428 7.39009 1.98039C6.01059 1.43666 4.70855 1.46892 3.72596 2.08203C2.74338 2.69514 2.14156 3.84875 2.02862 5.32989C1.97266 6.17053 2.05718 7.01463 2.27871 7.82749ZM15.3331 10.4735C15.8499 9.65513 16.2395 8.76293 16.4883 7.82749C16.7101 7.01743 16.7951 6.17602 16.74 5.33795C16.627 3.86488 16.0252 2.70482 15.0426 2.0901C14.06 1.47538 12.758 1.43988 11.3785 1.98845C10.5991 2.30598 9.87815 2.75151 9.24554 3.30663C7.78203 4.58686 6.72908 6.27069 6.21873 8.14695C5.99503 8.96109 5.90887 9.80688 5.9638 10.6494C6.07513 12.1225 6.67856 13.2841 7.66114 13.8973C8.16804 14.2064 8.7487 14.3735 9.34235 14.3813H9.41657C10.0102 14.3733 10.5908 14.2061 11.0978 13.8973C12.0804 13.2841 12.6838 12.1305 12.7951 10.6494C12.8507 9.80982 12.7662 8.96685 12.545 8.15502C12.4853 7.92591 12.4143 7.69842 12.3353 7.47254L9.9845 8.94238C9.91771 8.98376 9.83724 8.99697 9.76073 8.97913C9.68421 8.96129 9.61789 8.91384 9.5763 8.84719L9.04386 7.9969C9.00249 7.93012 8.98927 7.84965 9.00711 7.77313C9.02496 7.69662 9.0724 7.6303 9.13905 7.5887L12.7725 5.31375C12.807 5.2915 12.8458 5.27676 12.8863 5.27049C12.9269 5.26423 12.9683 5.26658 13.0078 5.27738C13.0474 5.28819 13.0843 5.30722 13.116 5.33322C13.1477 5.35923 13.1736 5.39162 13.192 5.42831C14.365 7.65163 14.678 10.0202 14.2036 11.9563C14.6265 11.4992 15.0047 11.0027 15.3331 10.4735ZM27.5016 8.41625H30.8705C30.9102 8.41214 30.9503 8.4165 30.9882 8.42904C31.0261 8.44158 31.0609 8.46202 31.0904 8.48901C31.1198 8.516 31.1432 8.54892 31.1589 8.58561C31.1747 8.62229 31.1825 8.66191 31.1818 8.70183V12.3272C31.1827 12.3667 31.1756 12.4059 31.1609 12.4425C31.1462 12.4791 31.1243 12.5124 31.0964 12.5403C31.0685 12.5681 31.0352 12.5901 30.9986 12.6048C30.962 12.6195 30.9228 12.6266 30.8834 12.6257H29.7927C29.7533 12.6264 29.7142 12.6191 29.6777 12.6043C29.6412 12.5896 29.608 12.5676 29.5802 12.5398C29.5523 12.5119 29.5303 12.4787 29.5156 12.4422C29.5008 12.4057 29.4935 12.3666 29.4942 12.3272V11.3801C28.802 12.2546 27.5984 12.8048 26.2367 12.8048C23.681 12.8048 21.6819 10.8848 21.6819 8.14197C21.6819 5.29586 23.8391 3.33391 26.5642 3.33391C28.5761 3.33391 30.1847 4.20033 30.8995 5.93962C30.9187 5.98575 30.9296 6.03491 30.9318 6.08483C30.9318 6.16873 30.8769 6.23004 30.7043 6.28974L29.4296 6.77377C29.3523 6.80376 29.2666 6.80376 29.1892 6.77377C29.1212 6.73357 29.068 6.67244 29.0376 6.59952C28.5842 5.73794 27.7678 5.14742 26.5158 5.14742C24.891 5.14742 23.7294 6.40752 23.7294 8.05161C23.7294 9.64569 24.72 10.9558 26.5609 10.9558C27.529 10.9558 28.297 10.4976 28.6584 9.99742H27.508C27.4686 9.9983 27.4294 9.99119 27.3928 9.9765C27.3562 9.96181 27.3229 9.93986 27.295 9.91196C27.2671 9.88407 27.2452 9.85081 27.2305 9.8142C27.2158 9.77758 27.2087 9.73838 27.2096 9.69894V8.71796C27.2083 8.67881 27.2148 8.63979 27.2289 8.60323C27.243 8.56668 27.2643 8.53333 27.2916 8.50518C27.3188 8.47703 27.3515 8.45465 27.3875 8.43937C27.4236 8.42409 27.4624 8.41623 27.5016 8.41625ZM39.3801 3.45828H42.8942C45.7064 3.45828 47.6603 5.30406 47.6603 8.02432C47.6603 10.7446 45.7064 12.6146 42.8942 12.6146H39.3801C39.3412 12.6148 39.3027 12.6072 39.2668 12.592C39.231 12.5768 39.1987 12.5545 39.1718 12.5264C39.1449 12.4983 39.124 12.465 39.1105 12.4286C39.0969 12.3921 39.0909 12.3533 39.0929 12.3145V3.74547C39.0922 3.70758 39.0992 3.66994 39.1134 3.6348C39.1276 3.59966 39.1487 3.56774 39.1755 3.54094C39.2023 3.51414 39.2343 3.49301 39.2694 3.47881C39.3046 3.46461 39.3422 3.45763 39.3801 3.45828ZM41.0548 10.8091H42.9764V10.8156C44.5334 10.8156 45.6031 9.59258 45.6063 8.02432C45.6063 6.42701 44.5334 5.26372 42.9764 5.26372H41.0548V10.8091ZM68.1606 3.45836H69.482C69.5184 3.45726 69.5546 3.46358 69.5885 3.47695C69.6224 3.49032 69.6531 3.51046 69.679 3.53613C69.7048 3.5618 69.7251 3.59247 69.7387 3.62626C69.7522 3.66005 69.7588 3.69625 69.7579 3.73265V12.3404C69.7588 12.3768 69.7522 12.413 69.7387 12.4467C69.7251 12.4805 69.7048 12.5112 69.679 12.5369C69.6531 12.5625 69.6224 12.5827 69.5885 12.5961C69.5546 12.6094 69.5184 12.6157 69.482 12.6146H68.1606C68.088 12.6142 68.0184 12.5852 67.9671 12.5338C67.9157 12.4825 67.8867 12.413 67.8863 12.3404V11.9354C67.5329 12.4323 66.8924 12.7986 66.0421 12.7986C64.3932 12.7986 62.8636 11.4949 62.8636 9.42325C62.8636 7.3516 64.3803 6.06084 66.0163 6.06084C66.8795 6.06084 67.5733 6.42709 67.8734 6.89822V3.73265C67.874 3.69571 67.882 3.65927 67.8968 3.62543C67.9116 3.59159 67.933 3.56103 67.9597 3.53552C67.9864 3.51 68.0179 3.49005 68.0524 3.4768C68.0869 3.46356 68.1236 3.45729 68.1606 3.45836ZM64.8917 9.44423C64.8917 10.38 65.5452 11.0577 66.4164 11.0577C67.2877 11.0577 67.9428 10.3784 67.9428 9.44423C67.9428 8.51005 67.2958 7.83079 66.4164 7.83079C65.5371 7.83079 64.8917 8.50843 64.8917 9.44423ZM62.0723 3.45841H60.7509C60.7139 3.45712 60.6769 3.46322 60.6423 3.47637C60.6076 3.48951 60.5759 3.50944 60.549 3.53497C60.5221 3.56051 60.5006 3.59114 60.4857 3.62509C60.4708 3.65904 60.4628 3.69562 60.4621 3.73269V6.89826C60.162 6.42714 59.4683 6.06089 58.6051 6.06089C56.9707 6.06089 55.4524 7.35164 55.4524 9.4233C55.4524 11.495 56.9836 12.7986 58.6309 12.7986C59.4812 12.7986 60.1233 12.4324 60.475 11.9354V12.3404C60.4759 12.4132 60.5053 12.4827 60.5569 12.534C60.6085 12.5853 60.6782 12.6143 60.7509 12.6147H62.0723C62.1086 12.6156 62.1447 12.6091 62.1784 12.5956C62.212 12.5821 62.2426 12.562 62.2683 12.5363C62.2939 12.5107 62.3141 12.4801 62.3276 12.4464C62.341 12.4127 62.3475 12.3767 62.3466 12.3404V3.73269C62.3475 3.69643 62.341 3.66037 62.3276 3.62669C62.3141 3.59301 62.2939 3.56242 62.2683 3.53678C62.2426 3.51113 62.212 3.49096 62.1784 3.47749C62.1447 3.46401 62.1086 3.45753 62.0723 3.45841ZM58.9939 11.0577C58.121 11.0577 57.4676 10.3801 57.4676 9.44427C57.4676 8.50848 58.121 7.83083 58.9939 7.83083C59.8668 7.83083 60.5186 8.51009 60.5186 9.44427C60.5186 10.3785 59.87 11.0577 58.9939 11.0577ZM53.3352 6.24482H54.6566C54.6935 6.24544 54.73 6.25339 54.7638 6.2682C54.7977 6.28302 54.8282 6.3044 54.8537 6.33112C54.8792 6.35783 54.8992 6.38934 54.9124 6.42383C54.9257 6.45831 54.932 6.49508 54.9309 6.53201V12.3404C54.9318 12.3767 54.9253 12.4127 54.9118 12.4464C54.8983 12.4801 54.8782 12.5107 54.8525 12.5363C54.8269 12.562 54.7963 12.5821 54.7626 12.5956C54.7289 12.6091 54.6929 12.6156 54.6566 12.6147H53.3352C53.2626 12.6143 53.1931 12.5852 53.1417 12.5339C53.0904 12.4825 53.0613 12.413 53.0609 12.3404V11.9354C52.7592 12.4324 52.067 12.7986 51.2167 12.7986C49.5678 12.7986 48.0383 11.495 48.0383 9.42329C48.0383 7.35164 49.5807 6.06088 51.2296 6.06088C52.0799 6.06088 52.7592 6.42713 53.0609 6.92569V6.53201C53.0631 6.45871 53.0923 6.38882 53.143 6.3358C53.1936 6.28277 53.2621 6.25036 53.3352 6.24482ZM50.0502 9.42813C50.0502 10.3688 50.7069 11.0416 51.583 11.0416C52.4591 11.0416 53.1158 10.3688 53.1158 9.42813C53.1158 8.4875 52.4591 7.81469 51.583 7.81469C50.7069 7.81469 50.0502 8.4875 50.0502 9.42813ZM35.1157 6.06074C34.6659 6.05434 34.2193 6.13714 33.8017 6.30435C33.3841 6.47156 33.0038 6.71986 32.6828 7.03491C32.3617 7.34996 32.1063 7.72552 31.9312 8.13987C31.7562 8.55422 31.665 8.99916 31.6629 9.44897C31.6629 11.3335 33.207 12.7985 35.1157 12.7985C37.0244 12.7985 38.5829 11.3335 38.5829 9.44897C38.5829 7.56447 37.0518 6.06074 35.1157 6.06074ZM35.1157 11.0285C34.7977 11.0356 34.4849 10.9477 34.2172 10.776C33.9495 10.6044 33.739 10.3568 33.6128 10.065C33.4865 9.77314 33.4501 9.45026 33.5082 9.13762C33.5664 8.82497 33.7164 8.53677 33.9392 8.30985C34.162 8.08292 34.4474 7.92759 34.7589 7.86369C35.0704 7.79979 35.3939 7.83024 35.6881 7.95114C35.9822 8.07204 36.2336 8.2779 36.4101 8.54241C36.5866 8.80692 36.6803 9.11806 36.6791 9.43606C36.6838 9.64404 36.6468 9.85086 36.5703 10.0443C36.4938 10.2377 36.3793 10.4139 36.2335 10.5623C36.0878 10.7108 35.9138 10.8285 35.7218 10.9086C35.5298 10.9887 35.3237 11.0294 35.1157 11.0285ZM76.4709 6.24471H75.1527C75.0686 6.24529 74.9875 6.27582 74.9239 6.33083C74.8604 6.38583 74.8185 6.4617 74.8058 6.54481L73.5877 11.0947L72.2856 6.54481C72.2098 6.3028 72.092 6.24471 71.9226 6.24471H70.5318C70.2091 6.24471 70.1446 6.46737 70.2091 6.69002L71.9726 12.3371C71.9908 12.4165 72.036 12.4872 72.1004 12.5372C72.1647 12.5872 72.2445 12.6134 72.326 12.6113H73.123L72.9536 13.1728C72.7922 13.6569 72.4696 13.7875 72.0694 13.7875C71.7707 13.7778 71.4827 13.6739 71.2466 13.4907C71.1716 13.4341 71.0807 13.4025 70.9868 13.4003C70.869 13.4003 70.7867 13.4536 70.6754 13.6181L70.2882 14.2038C70.2136 14.295 70.1721 14.4087 70.1704 14.5265C70.1704 14.7346 70.3785 14.8653 70.627 15.0105C71.1121 15.2667 71.655 15.3934 72.2033 15.3784C73.5247 15.3784 74.375 14.6588 74.7542 13.4552L76.7258 6.69486C76.8113 6.42703 76.7419 6.24471 76.4709 6.24471ZM79.7237 10.2071L80.7612 9.92475C81.0113 11.1623 81.8325 11.7899 83.0361 11.7899C84.2398 11.7899 84.8884 11.2058 84.8884 10.3604C84.8884 9.20506 83.8714 8.7939 82.7949 8.35871C81.5849 7.86951 80.2997 7.34995 80.2997 5.70883C80.2997 4.43422 81.3969 3.45002 82.8893 3.45002C84.1381 3.45002 85.0158 4.00827 85.5612 5.12961L84.6189 5.49102C84.2285 4.74077 83.6702 4.38904 82.8764 4.38904C81.96 4.38904 81.3517 4.93277 81.3517 5.67011C81.3517 6.68467 82.2918 7.05508 83.3208 7.46052C84.5648 7.95067 85.9387 8.49202 85.9387 10.2846C85.9387 11.706 84.7722 12.7257 82.9781 12.7257C81.2597 12.7257 80.0755 11.7834 79.7237 10.2071ZM87.4862 7.05432V10.783C87.4862 12.0398 88.146 12.7256 89.3319 12.7256C89.6448 12.723 89.9554 12.673 90.2532 12.5771V11.6607C90.0007 11.7625 89.7316 11.8172 89.4594 11.822C88.8511 11.822 88.4913 11.5139 88.4913 10.6684V7.05432H90.2371V6.20887H88.4865V3.96619H87.4878V6.20887H86.4229V7.05432H87.4862ZM95.5787 12.6164V11.6112C95.3768 11.957 95.0863 12.2427 94.7372 12.4386C94.388 12.6346 93.9929 12.7339 93.5925 12.7261C92.2211 12.7261 91.3563 11.8419 91.3563 10.2462V6.21263H92.3679V10.1107C92.3679 11.2401 92.9455 11.8226 93.8684 11.8226C94.9123 11.8226 95.5787 11.1772 95.5787 9.95742V6.2094H96.5871V12.6164H95.5787ZM102.667 12.6161H103.687V3.55499H102.667V7.39982C102.264 6.57374 101.457 6.09939 100.489 6.09939C98.753 6.09939 97.7333 7.53374 97.7333 9.41178C97.7333 11.2898 98.7529 12.7258 100.495 12.7258C101.47 12.7258 102.27 12.2514 102.667 11.4237V12.6161ZM100.733 6.99807C102.007 6.99807 102.751 8.04197 102.751 9.41824H102.758C102.758 10.7832 102.002 11.8384 100.733 11.8384C99.4629 11.8384 98.7965 10.78 98.7965 9.41824C98.7965 8.05649 99.458 6.99807 100.733 6.99807ZM105.089 4.1457C105.089 4.01806 105.127 3.89328 105.198 3.78715C105.269 3.68102 105.37 3.5983 105.488 3.54945C105.606 3.50061 105.735 3.48783 105.861 3.51273C105.986 3.53763 106.101 3.5991 106.191 3.68935C106.281 3.77961 106.343 3.89461 106.368 4.0198C106.393 4.14499 106.38 4.27475 106.331 4.39268C106.282 4.51061 106.199 4.6114 106.093 4.68231C105.987 4.75323 105.862 4.79108 105.735 4.79108C105.564 4.79108 105.399 4.72309 105.278 4.60205C105.157 4.48102 105.089 4.31687 105.089 4.1457ZM106.237 6.20929V12.6163H105.225V6.20929H106.237ZM107.314 9.41198C107.314 11.2739 108.588 12.726 110.453 12.726C112.311 12.726 113.587 11.2723 113.587 9.41198C113.587 7.55168 112.319 6.09958 110.453 6.09958C108.588 6.09958 107.314 7.55007 107.314 9.41198ZM108.377 9.41682C108.377 8.05508 109.114 6.99666 110.453 6.99666C111.793 6.99666 112.522 8.05508 112.522 9.41682C112.522 10.7786 111.793 11.837 110.453 11.837C109.114 11.837 108.377 10.7786 108.377 9.41682Z" fill="white"/>
</svg>
